<svg fill="none" height="2500" viewBox="52.45 118.22 917.471 826.22" width="2500" xmlns="http://www.w3.org/2000/svg"><g stroke-linecap="round" stroke-linejoin="round" stroke-width="4.5"><path d="m200.551 324.43c36.545 0 66.17-29.625 66.17-66.17s-29.625-66.17-66.17-66.17-66.17 29.625-66.17 66.17 29.625 66.17 66.17 66.17z" fill="#1ea446" stroke="#1ea446"/><path d="m144.56 510.07s-92.11 274 25.52 332.29c96.64 47.86 199.37-52.63 199.37-52.63s-27.12 111.64 23.92 154.71" stroke="#1f1f1f"/><path d="m932.151 485.88h-167.75c-20.86 0-37.77 16.91-37.77 37.77v167.75c0 20.86 16.91 37.77 37.77 37.77h167.75c20.86 0 37.77-16.91 37.77-37.77v-167.75c0-20.86-16.91-37.77-37.77-37.77z" fill="#f9dedc" stroke="#f9dedc"/><g stroke="#1f1f1f"><path d="m693.219 118.22h-267.71a21.91 21.91 0 0 0 -21.9 21.91v428.32a21.908 21.908 0 0 0 21.9 21.91h346.29a21.9 21.9 0 0 0 21.9-21.91v-349.72z" fill="#c2e7ff"/><path d="m576.509 607.52h-161.36a25.109 25.109 0 0 1 -25.11-25.11v-240.31a177.068 177.068 0 0 1 212.27 173.39 176.003 176.003 0 0 1 -25.8 92.03zm138.641-388.79a21.909 21.909 0 0 1 -15.492-6.411 21.89 21.89 0 0 1 -6.418-15.489v-78.61l100.46 100.51z" fill="#fff"/><path d="m450.15 265.92h283.11m-283.11 132.35h283.11m-283.11 66.17h228.4m-228.4-132.35h283.11"/></g><path d="m609.92 870.86a29.55 29.55 0 0 1 -39.67-13.13l-86.76-183 52.79-26.51 86.76 183a29.538 29.538 0 0 1 -13.12 39.64z" fill="#ffbb29" stroke="#ffbb29"/><path d="m549.761 676.61-41.37 50.64-16.34-34.46z" fill="#1f1f1f" stroke="#1f1f1f"/><path d="m434.429 307.51c-111.87 0-202.56 90.69-202.56 202.56s90.69 202.56 202.56 202.56 202.56-90.69 202.56-202.56-90.69-202.56-202.56-202.56zm0 356.89a154.33 154.33 0 1 1 154.33-154.33 154.342 154.342 0 0 1 -154.33 154.33z" fill="#ffbb29" stroke="#ffbb29"/><path d="m434.43 712.63c111.87 0 202.56-90.69 202.56-202.56s-90.69-202.56-202.56-202.56a201.55 201.55 0 0 0 -107.83 31.06" stroke="#1f1f1f"/></g></svg>